<svg width="24" height="25" viewBox="0 0 24 25" fill="none" xmlns="http://www.w3.org/2000/svg">
<g id="Locked">
<g id="Group">
<g id="12-Lock">
<path id="Vector" d="M17.25 9.5V7.0325C17.248 5.69841 16.7172 4.41952 15.7738 3.47618C14.8305 2.53283 13.5516 2.00198 12.2175 2H11.7825C10.4484 2.00198 9.16952 2.53283 8.22618 3.47618C7.28283 4.41952 6.75198 5.69841 6.75 7.0325V9.5C6.15326 9.5 5.58097 9.73705 5.15901 10.159C4.73705 10.581 4.5 11.1533 4.5 11.75V18.725C4.50198 19.8582 4.95302 20.9444 5.75431 21.7457C6.5556 22.547 7.64181 22.998 8.775 23H15.225C16.3582 22.998 17.4444 22.547 18.2457 21.7457C19.047 20.9444 19.498 19.8582 19.5 18.725V11.75C19.5 11.1533 19.2629 10.581 18.841 10.159C18.419 9.73705 17.8467 9.5 17.25 9.5ZM8.25 7.0325C8.25 6.09562 8.62217 5.19712 9.28465 4.53465C9.94712 3.87217 10.8456 3.5 11.7825 3.5H12.2175C13.1544 3.5 14.0529 3.87217 14.7154 4.53465C15.3778 5.19712 15.75 6.09562 15.75 7.0325V9.5H8.25V7.0325ZM18 18.725C18 19.461 17.7076 20.1668 17.1872 20.6872C16.6668 21.2076 15.961 21.5 15.225 21.5H8.775C8.03902 21.5 7.33319 21.2076 6.81278 20.6872C6.29237 20.1668 6 19.461 6 18.725V11.75C6 11.5511 6.07902 11.3603 6.21967 11.2197C6.36032 11.079 6.55109 11 6.75 11H17.25C17.4489 11 17.6397 11.079 17.7803 11.2197C17.921 11.3603 18 11.5511 18 11.75V18.725Z" fill="white"/>
</g>
</g>
</g>
</svg>
